<svg width="200" height="60" viewBox="0 0 200 60" xmlns="http://www.w3.org/2000/svg">
  <!-- Icon: Marketplace/Shopping Bag -->
  <g transform="translate(5, 8)">
    <!-- Shopping bag icon -->
    <path d="M15 12 L15 8 C15 3.6 18.6 0 23 0 C27.4 0 31 3.6 31 8 L31 12" 
          fill="none" stroke="#10b981" stroke-width="2.5" stroke-linecap="round"/>
    <path d="M5 12 L5 40 C5 42.2 6.8 44 9 44 L37 44 C39.2 44 41 42.2 41 40 L41 12" 
          fill="#10b981" stroke="#10b981" stroke-width="2.5"/>
    <!-- Shopping bag handles -->
    <path d="M10 16 L12 16" stroke="white" stroke-width="2" stroke-linecap="round"/>
    <path d="M34 16 L36 16" stroke="white" stroke-width="2" stroke-linecap="round"/>
    <!-- Decorative circle/items inside -->
    <circle cx="18" cy="24" r="2.5" fill="white" opacity="0.9"/>
    <circle cx="23" cy="28" r="2" fill="white" opacity="0.9"/>
    <circle cx="28" cy="24" r="2.5" fill="white" opacity="0.9"/>
  </g>
  
  <!-- Text: NaDlanka -->
  <text x="55" y="38" font-family="-apple-system, BlinkMacSystemFont, 'Segoe UI', 'Roboto', sans-serif" 
        font-size="28" font-weight="700" fill="#2c3e50">
    NaDlanka
  </text>
  
  <!-- Subtitle: Marketplace -->
  <text x="55" y="48" font-family="-apple-system, BlinkMacSystemFont, 'Segoe UI', 'Roboto', sans-serif" 
        font-size="11" font-weight="500" fill="#10b981" opacity="0.8">
    MARKETPLACE
  </text>
</svg>

