<svg width="32" height="32" viewBox="0 0 32 32" xmlns="http://www.w3.org/2000/svg">
  <defs>
    <linearGradient id="faviconGradient" x1="0%" y1="0%" x2="100%" y2="100%">
      <stop offset="0%" style="stop-color:#10b981;stop-opacity:1" />
      <stop offset="100%" style="stop-color:#059669;stop-opacity:1" />
    </linearGradient>
  </defs>
  
  <!-- Shopping bag icon -->
  <path d="M11 8 L11 6 C11 4.3 12.3 3 14 3 C15.7 3 17 4.3 17 6 L17 8" 
        fill="none" stroke="url(#faviconGradient)" stroke-width="1.5" stroke-linecap="round"/>
  <path d="M7 8 L7 24 C7 25.1 7.9 26 9 26 L23 26 C24.1 26 25 25.1 25 24 L25 8" 
        fill="url(#faviconGradient)" stroke="url(#faviconGradient)" stroke-width="1.5"/>
  
  <!-- Handles -->
  <path d="M8 10 L9 10" stroke="white" stroke-width="1.5" stroke-linecap="round"/>
  <path d="M23 10 L24 10" stroke="white" stroke-width="1.5" stroke-linecap="round"/>
  
  <!-- Items -->
  <circle cx="12" cy="15" r="2" fill="white" opacity="0.95"/>
  <circle cx="16" cy="17" r="1.5" fill="white" opacity="0.95"/>
  <circle cx="20" cy="15" r="2" fill="white" opacity="0.95"/>
</svg>
